<svg width="178" height="33" viewBox="0 0 178 33" fill="none" xmlns="http://www.w3.org/2000/svg">
<path d="M0.504 25V24.232L3.224 23.592V2.008L0.504 1.4V0.631998H18.36L18.92 7.592H18.072C17.816 6.696 17.5013 5.75733 17.128 4.776C16.7653 3.784 16.3173 2.84 15.784 1.944H6.824V23.672H15.624C16.2533 22.648 16.7653 21.6347 17.16 20.632C17.5653 19.6293 17.9493 18.616 18.312 17.592H19.432L18.232 25H0.504ZM13.464 16.584C13.3573 15.944 13.208 15.3093 13.016 14.68C12.824 14.0507 12.5733 13.4267 12.264 12.808H6.376V11.48H12.264C12.5733 10.8507 12.8187 10.2213 13 9.592C13.192 8.952 13.3467 8.32267 13.464 7.704H14.296V16.584H13.464ZM31.4945 25V24.296C32.5612 24.2107 33.1692 24.072 33.3185 23.88C33.4785 23.688 33.3345 23.2613 32.8865 22.6L24.6945 10.28C24.3958 9.84267 24.0545 9.53867 23.6705 9.368C23.2865 9.18667 22.6518 9.03733 21.7665 8.92V8.216H30.0545V8.92C29.1372 8.984 28.5932 9.128 28.4225 9.352C28.2625 9.576 28.3958 9.99733 28.8225 10.616L37.0145 22.936C37.3132 23.3627 37.6385 23.6773 37.9905 23.88C38.3532 24.0827 38.9238 24.2213 39.7025 24.296V25H31.4945ZM21.0785 25V24.296C22.1558 24.1467 22.9932 23.9067 23.5905 23.576C24.1878 23.2453 24.7478 22.7387 25.2705 22.056L29.6705 16.168L30.8225 16.76L26.7265 22.008C26.1932 22.7013 26.0385 23.224 26.2625 23.576C26.4972 23.9173 27.1585 24.1573 28.2465 24.296V25H21.0785ZM31.2065 16.28L30.0545 15.88L33.7505 11.208C34.2838 10.5147 34.4545 10.0027 34.2625 9.672C34.0705 9.34133 33.4732 9.09067 32.4705 8.92V8.216H39.1585V8.92C38.4758 9.048 37.9212 9.192 37.4945 9.352C37.0785 9.512 36.7158 9.72533 36.4065 9.992C36.0972 10.248 35.7558 10.6053 35.3825 11.064L31.2065 16.28ZM40.3748 32.92V32.296L42.8068 31.768V10.76L40.4548 9.912V9.416L45.5588 7.896H45.9428V10.632H46.0708C46.7108 9.68267 47.4948 8.98933 48.4228 8.552C49.3614 8.11467 50.3108 7.896 51.2708 7.896C52.6041 7.896 53.7721 8.264 54.7748 9C55.7881 9.72533 56.5774 10.7227 57.1428 11.992C57.7188 13.2613 58.0068 14.712 58.0068 16.344C58.0068 18.104 57.6334 19.6613 56.8868 21.016C56.1401 22.3707 55.1001 23.432 53.7668 24.2C52.4441 24.9573 50.8974 25.336 49.1267 25.336C48.6148 25.336 48.1081 25.2933 47.6068 25.208C47.1054 25.1333 46.5988 25.0107 46.0868 24.84V31.768L49.3508 32.296V32.92H40.3748ZM49.2548 24.264C50.2894 24.264 51.1961 23.9493 51.9748 23.32C52.7534 22.6907 53.3561 21.8213 53.7828 20.712C54.2201 19.592 54.4388 18.3067 54.4388 16.856C54.4388 14.7333 54.0068 13.064 53.1428 11.848C52.2894 10.632 51.1214 10.024 49.6388 10.024C48.9881 10.024 48.3214 10.2 47.6388 10.552C46.9561 10.8933 46.4761 11.3253 46.1988 11.848V21.112C46.1988 22.0293 46.4921 22.7867 47.0788 23.384C47.6761 23.9707 48.4014 24.264 49.2548 24.264ZM68.6375 25.336C67.0908 25.336 65.7308 24.984 64.5575 24.28C63.3948 23.5653 62.4882 22.5733 61.8375 21.304C61.1975 20.024 60.8775 18.5467 60.8775 16.872C60.8775 15.0907 61.2348 13.528 61.9495 12.184C62.6748 10.84 63.6828 9.78933 64.9735 9.032C66.2748 8.27467 67.7788 7.896 69.4855 7.896C71.5975 7.896 73.2135 8.50933 74.3335 9.736C75.4642 10.9627 76.0508 12.76 76.0935 15.128L75.8695 15.32H63.4695V14.392L72.4295 14.072C72.5042 13.7947 72.5415 13.3733 72.5415 12.808C72.5415 10.248 71.4162 8.968 69.1655 8.968C67.6188 8.968 66.4242 9.576 65.5815 10.792C64.7495 11.9973 64.3335 13.7093 64.3335 15.928C64.3335 20.568 66.1362 22.888 69.7415 22.888C72.0882 22.888 73.8855 22.0347 75.1335 20.328L75.7255 20.696C75.1708 22.168 74.2695 23.3093 73.0215 24.12C71.7842 24.9307 70.3228 25.336 68.6375 25.336ZM78.3358 25V24.296L80.7358 23.8V10.76L78.3997 9.88V9.416L83.5198 7.88H83.8718V11.336L83.9998 11.496V23.8L87.2958 24.296V25H78.3358ZM83.7598 12.808L83.6958 11.496C84.4851 10.3333 85.2691 9.43733 86.0478 8.808C86.8371 8.17867 87.5731 7.864 88.2558 7.864C88.8424 7.864 89.3384 8.06667 89.7438 8.472C90.1491 8.86667 90.3518 9.34667 90.3518 9.912C90.3518 10.4347 90.1758 10.8773 89.8238 11.24C89.4718 11.592 89.0344 11.768 88.5118 11.768C87.9784 11.768 87.5624 11.5707 87.2638 11.176C87.0504 10.9307 86.8691 10.7653 86.7198 10.68C86.5704 10.584 86.3998 10.536 86.2078 10.536C85.8984 10.536 85.5091 10.744 85.0398 11.16C84.5811 11.5653 84.1544 12.1147 83.7598 12.808ZM97.4845 25.336C96.3005 25.336 95.3992 25 94.7805 24.328C94.1618 23.656 93.8525 22.6907 93.8525 21.432V9.4H91.7725L91.6765 8.824L96.4765 4.056L97.1005 4.12V8.216H101.677L101.405 9.4H97.1005V21.112C97.1005 22.8613 97.7298 23.736 98.9885 23.736C99.4152 23.736 99.8365 23.624 100.253 23.4C100.679 23.176 101.042 22.8667 101.341 22.472L101.901 22.968C101.41 23.6933 100.77 24.2693 99.9805 24.696C99.2018 25.1227 98.3698 25.336 97.4845 25.336ZM120.288 25.288C119.414 25.288 118.56 25.16 117.728 24.904C116.907 24.648 116.038 24.248 115.12 23.704L113.856 25H113.2L112.608 16.888L113.472 16.712C114.112 19.2187 114.955 21.0373 116 22.168C117.056 23.2987 118.448 23.864 120.176 23.864C121.627 23.864 122.774 23.5173 123.616 22.824C124.459 22.12 124.88 21.1707 124.88 19.976C124.88 19.0373 124.587 18.2 124 17.464C123.424 16.7173 122.475 15.9707 121.152 15.224L118.704 13.928C116.71 12.8507 115.28 11.7787 114.416 10.712C113.552 9.64533 113.12 8.40267 113.12 6.984C113.12 5.704 113.435 4.56267 114.064 3.56C114.694 2.54667 115.552 1.752 116.64 1.176C117.739 0.589333 118.971 0.296 120.336 0.296C122.203 0.296 123.83 0.951999 125.216 2.264L126.192 0.599998H126.88L127.168 7.592H126.256C125.755 5.59733 125.03 4.12533 124.08 3.176C123.142 2.216 121.942 1.736 120.48 1.736C119.296 1.736 118.358 2.05066 117.664 2.68C116.982 3.30933 116.64 4.17333 116.64 5.272C116.64 6.264 116.966 7.14933 117.616 7.928C118.278 8.70667 119.387 9.50667 120.944 10.328L123.328 11.608C124.96 12.472 126.139 13.432 126.864 14.488C127.6 15.544 127.968 16.7547 127.968 18.12C127.968 19.4747 127.627 20.696 126.944 21.784C126.272 22.8613 125.355 23.7147 124.192 24.344C123.04 24.9733 121.739 25.288 120.288 25.288ZM136.485 25.336C135.301 25.336 134.399 25 133.781 24.328C133.162 23.656 132.853 22.6907 132.853 21.432V9.4H130.773L130.677 8.824L135.477 4.056L136.101 4.12V8.216H140.677L140.405 9.4H136.101V21.112C136.101 22.8613 136.73 23.736 137.989 23.736C138.415 23.736 138.837 23.624 139.253 23.4C139.679 23.176 140.042 22.8667 140.341 22.472L140.901 22.968C140.41 23.6933 139.77 24.2693 138.981 24.696C138.202 25.1227 137.37 25.336 136.485 25.336ZM150.325 25.336C148.778 25.336 147.418 24.984 146.245 24.28C145.082 23.5653 144.176 22.5733 143.525 21.304C142.885 20.024 142.565 18.5467 142.565 16.872C142.565 15.0907 142.922 13.528 143.637 12.184C144.362 10.84 145.37 9.78933 146.661 9.032C147.962 8.27467 149.466 7.896 151.173 7.896C153.285 7.896 154.901 8.50933 156.021 9.736C157.152 10.9627 157.738 12.76 157.781 15.128L157.557 15.32H145.157V14.392L154.117 14.072C154.192 13.7947 154.229 13.3733 154.229 12.808C154.229 10.248 153.104 8.968 150.853 8.968C149.306 8.968 148.112 9.576 147.269 10.792C146.437 11.9973 146.021 13.7093 146.021 15.928C146.021 20.568 147.824 22.888 151.429 22.888C153.776 22.888 155.573 22.0347 156.821 20.328L157.413 20.696C156.858 22.168 155.957 23.3093 154.709 24.12C153.472 24.9307 152.01 25.336 150.325 25.336ZM159.687 32.92V32.296L162.119 31.768V10.76L159.767 9.912V9.416L164.871 7.896H165.255V10.632H165.383C166.023 9.68267 166.807 8.98933 167.735 8.552C168.674 8.11467 169.623 7.896 170.583 7.896C171.917 7.896 173.085 8.264 174.087 9C175.101 9.72533 175.89 10.7227 176.455 11.992C177.031 13.2613 177.319 14.712 177.319 16.344C177.319 18.104 176.946 19.6613 176.199 21.016C175.453 22.3707 174.413 23.432 173.079 24.2C171.757 24.9573 170.21 25.336 168.439 25.336C167.927 25.336 167.421 25.2933 166.919 25.208C166.418 25.1333 165.911 25.0107 165.399 24.84V31.768L168.663 32.296V32.92H159.687ZM168.567 24.264C169.602 24.264 170.509 23.9493 171.287 23.32C172.066 22.6907 172.669 21.8213 173.095 20.712C173.533 19.592 173.751 18.3067 173.751 16.856C173.751 14.7333 173.319 13.064 172.455 11.848C171.602 10.632 170.434 10.024 168.951 10.024C168.301 10.024 167.634 10.2 166.951 10.552C166.269 10.8933 165.789 11.3253 165.511 11.848V21.112C165.511 22.0293 165.805 22.7867 166.391 23.384C166.989 23.9707 167.714 24.264 168.567 24.264Z" fill="#4F4FCB"/>
</svg>
